<svg xmlns="http://www.w3.org/2000/svg" xmlns:xlink="http://www.w3.org/1999/xlink" width="355" height="355" viewBox="0 0 355 355">
  <defs>
    <filter id="placeholder-python-a" width="135.5%" height="164.9%" x="-17.7%" y="-32.5%" filterUnits="objectBoundingBox">
      <feGaussianBlur in="SourceGraphic" stdDeviation="10"/>
    </filter>
    <radialGradient id="placeholder-python-b" cy="54.265%" r="51.684%" fx="50%" fy="54.265%" gradientTransform="matrix(0 1 -1.35108 0 1.233 .043)">
      <stop offset="0%"/>
      <stop offset="100%" stop-opacity="0"/>
    </radialGradient>
    <polygon id="placeholder-python-c" points=".961 2.408 .961 109.016 98.234 57.355 10.321 1.214"/>
    <linearGradient id="placeholder-python-e" x1="50%" x2="50%" y1="3.249%" y2="96.774%">
      <stop offset="0%" stop-color="#5EBE85"/>
      <stop offset="100%" stop-color="#207145"/>
    </linearGradient>
    <polygon id="placeholder-python-f" points="97.393 .923 97.393 109.37 1.396 57.355 89.309 1.214"/>
    <polygon id="placeholder-python-h" points="116.661 201.475 .602 134.317 .602 0 116.661 61.992"/>
    <linearGradient id="placeholder-python-j" x1="50%" x2="50%" y1="3.249%" y2="96.774%">
      <stop offset="1.539%" stop-color="#82DA9E"/>
      <stop offset="100%" stop-color="#48AE76"/>
    </linearGradient>
    <polygon id="placeholder-python-k" points=".961 201.475 117.022 134.317 117.022 0 .961 61.992"/>
    <path id="placeholder-python-m" d="M0,65.4188654 L116.676033,128.682159 L233.390633,65.4931442 L117.0172,1.10229808 L0,65.4188654 Z M26.9951833,65.3133894 L116.996433,15.8451635 L206.260467,65.237625 L116.676033,113.826389 L26.9951833,65.3133894 Z"/>
    <polygon id="placeholder-python-o" points="116.479 201.437 .601 134.291 .601 0 116.479 63.465"/>
    <linearGradient id="placeholder-python-r" x1="-10.008%" y1="-14.933%" y2="100%">
      <stop offset="0%" stop-color="#3CE796"/>
      <stop offset="100%" stop-color="#05A768"/>
    </linearGradient>
    <path id="placeholder-python-q" d="M47.4546076,26.9359942 C47.6708354,26.8134307 47.9122405,26.7571682 48.1551266,26.7663144 C48.3757975,26.7746241 48.5964684,26.8364044 48.7993671,26.9524713 L116.957051,65.9741016 C117.402835,66.22705 117.678304,66.7038055 117.678304,67.2073202 L117.678304,91.8156732 C117.678304,92.2969085 117.428013,92.7330716 117.01481,92.9640708 C116.800063,93.0852048 116.557177,93.1414115 116.315772,93.132321 C116.09362,93.1239556 115.872949,93.0592048 115.670051,92.9431379 L47.5108861,53.6169664 C47.0695443,53.3612147 46.7925949,52.8903447 46.7925949,52.38683 L46.7925949,28.0829623 C46.7925949,27.601727 47.0443671,27.1671049 47.4546076,26.9359942 Z M47.4546076,68.5242295 C47.6708354,68.401666 47.9122405,68.3454035 48.1551266,68.3545497 C48.3757975,68.3628594 48.5964684,68.4246396 48.7993671,68.5407066 L116.957051,107.562337 C117.402835,107.815285 117.678304,108.292041 117.678304,108.795556 L117.678304,133.403908 C117.678304,133.885144 117.428013,134.321307 117.01481,134.552306 C116.800063,134.67344 116.557177,134.729647 116.315772,134.720556 C116.09362,134.712191 115.872949,134.64744 115.670051,134.531373 L47.5108861,95.2052017 C47.0695443,94.94945 46.7925949,94.47858 46.7925949,93.9750652 L46.7925949,69.6711976 C46.7925949,69.1899623 47.0443671,68.7553402 47.4546076,68.5242295 Z"/>
    <path id="placeholder-python-t" d="M53.0398096,40.9965082 C52.3531346,43.1153875 50.591271,43.7953677 49.104981,42.5185006 C47.6171851,41.2430184 46.977192,38.5064789 47.6744081,36.4069881 C48.3716241,34.3074973 50.1334877,33.6233624 51.6107425,34.8808411 C53.0879973,36.1397046 53.7279905,38.8790139 53.0398096,40.9965082 Z M62.4528228,87.9469982 C61.777481,90.2180129 60.0446962,90.9487776 58.5829367,89.5793364 C57.1196962,88.2098952 56.4902658,85.2749541 57.1759747,83.0247335 C57.8616835,80.7715423 59.5944684,80.037807 61.0473418,81.3864541 C62.5002152,82.7365864 63.1296456,85.6759835 62.4528228,87.9469982 Z"/>
    <path id="placeholder-python-v" d="M5.65787851,7.88965431 C4.98105573,10.160669 3.24975193,10.8914337 1.78799243,9.52050725 C0.324751928,8.15255137 -0.304678452,5.2176102 0.381030409,2.96738961 C1.06673927,0.714198431 2.79952408,-0.0195368633 4.2523975,1.3291102 C5.70527092,2.67924255 6.3347013,5.61863961 5.65787851,7.88965431 Z M49.1237089,32.9911158 C48.4483671,35.2621305 46.7155823,35.9928952 45.2538228,34.6234541 C43.7905823,33.2540129 43.1611519,30.3190717 43.8468608,28.0688511 C44.5325696,25.81566 46.2653544,25.0819247 47.7182278,26.4305717 C49.1711013,27.7807041 49.8005316,30.7201011 49.1237089,32.9911158 Z M58.4452025,38.3526231 C57.7683797,40.6236378 56.0370759,41.3544026 54.5738354,39.9849614 C53.1120759,38.6155202 52.4826456,35.6820643 53.1683544,33.4303584 C53.8525823,31.1771673 55.5868481,30.443432 57.0397215,31.7935643 C58.4925949,33.1436967 59.1205443,36.0816084 58.4452025,38.3526231 Z M5.65787851,49.4778896 C4.98105573,51.7489043 3.24975193,52.479669 1.78799243,51.1087425 C0.324751928,49.7407867 -0.304678452,46.8058455 0.381030409,44.5556249 C1.06673927,42.3024337 2.79952408,41.5686984 4.2523975,42.9173455 C5.70527092,44.2674778 6.3347013,47.2068749 5.65787851,49.4778896 Z M58.4452025,79.9408584 C57.7683797,82.2118731 56.0370759,82.9426378 54.5738354,81.5731967 C53.1120759,80.2037555 52.4826456,77.2702996 53.1683544,75.0185937 C53.8525823,72.7654026 55.5868481,72.0316673 57.0397215,73.3817996 C58.4925949,74.731932 59.1205443,77.6698437 58.4452025,79.9408584 Z M39.7106957,69.2765209 C39.0240206,71.3954002 37.2621571,72.0753804 35.7758671,70.7985133 C34.2880712,69.5230311 33.6480781,66.7864916 34.3452941,64.6870008 C35.0425102,62.58751 36.8043738,61.9033751 38.2816286,63.1608538 C39.7588834,64.4197173 40.3988765,67.1590266 39.7106957,69.2765209 Z"/>
    <path id="placeholder-python-x" d="M40.24468,21.8656061 L1.65032,1.31969697 C1.50724,1.24484848 1.33476,1.24878788 1.19952,1.33348485 C1.06036,1.41621212 0.97608,1.56787879 0.97608,1.72939394 L0.97608,35.2575758 C0.97608,35.425 1.06624,35.5786364 1.21128,35.6593939 L39.80368,57.3890909 C39.8762,57.4284848 39.95264,57.4481818 40.02908,57.4481818 C40.10944,57.4481818 40.1898,57.4265152 40.26232,57.3851515"/>
    <path id="placeholder-python-z" d="M40.24468,21.8656061 L1.65032,1.31969697 C1.50724,1.24484848 1.33476,1.24878788 1.19952,1.33348485 C1.06036,1.41621212 0.97608,1.56787879 0.97608,1.72939394 L0.97608,35.2575758 C0.97608,35.425 1.06624,35.5786364 1.21128,35.6593939 L39.80368,57.3890909 C39.8762,57.4284848 39.95264,57.4481818 40.02908,57.4481818 C40.10944,57.4481818 40.1898,57.4265152 40.26232,57.3851515"/>
    <path id="placeholder-python-A" d="M40.48576,20.6975758 L1.8914,0.153636364 C1.74832,0.0768181818 1.57584,0.0807575758 1.4406,0.165454545 C1.30144,0.248181818 1.21716,0.399848485 1.21716,0.561363636 L1.21716,34.0895455 C1.21716,34.2569697 1.30732,34.4106061 1.45236,34.4933333 L40.04476,56.2210606 C40.11728,56.2604545 40.19372,56.2801515 40.27016,56.2801515 C40.35052,56.2801515 40.43088,56.2584848 40.5034,56.2171212 C40.64452,56.1343939 40.73076,55.9827273 40.73076,55.8192424 L40.73076,21.105303 C40.73076,20.9359091 40.63668,20.7783333 40.48576,20.6975758 Z"/>
    <linearGradient id="placeholder-python-D" x1="0%" x2="145.626%" y1="0%" y2="50%">
      <stop offset="0%" stop-color="#FBDE7B"/>
      <stop offset="100%" stop-color="#F6AF67"/>
    </linearGradient>
    <path id="placeholder-python-C" d="M19.28052,16.3130303 L18.23584,13.9828788 L26.68932,11.1622727 L27.73008,13.4845455 L19.28052,16.3130303 Z M18.11628,19.1277273 L18.97868,17.4357576 L27.89276,26.065 L27.02448,27.7490909 L18.11628,19.1277273 Z"/>
    <linearGradient id="placeholder-python-F" x1="50%" x2="50%" y1="0%" y2="100%">
      <stop offset="0%" stop-color="#FBDE7B"/>
      <stop offset="100%" stop-color="#F6AF67"/>
    </linearGradient>
    <path id="placeholder-python-G" d="M9.60792,9.66136364 C9.61968,12.5154545 7.64596,14.0636364 5.19596,13.1181818 C2.74792,12.1727273 0.74284,9.08030303 0.71932,6.20848485 C0.6958,3.33863636 2.66952,1.79045455 5.13128,2.75166667 C7.59108,3.71287879 9.59616,6.80727273 9.60792,9.66136364 Z M15.97204,7.11454545 C14.602,6.57878788 13.48872,4.86121212 13.4848,3.27560606 C13.48088,1.6919697 14.59024,0.845 15.9642,1.38666667 C17.33816,1.92636364 18.45144,3.64590909 18.45144,5.22560606 C18.45144,6.80530303 17.34208,7.65030303 15.97204,7.11454545 Z M18.92968,20.5478788 C18.92968,22.3363636 17.68116,23.3074242 16.1406,22.7184848 C14.60004,22.1275758 13.3476,20.1933333 13.34172,18.3989394 C13.3378,16.6045455 14.58632,15.6315152 16.13276,16.2283333 C17.67724,16.8251515 18.92968,18.7593939 18.92968,20.5478788 Z"/>
    <path id="placeholder-python-I" d="M68.8113462,0.115590361 C68.5714615,-0.0296385542 68.2708654,-0.0370481928 68.0235769,0.0948433735 L1.13575,35.7959639 C0.875134615,35.9352651 0.71225,36.2079398 0.71225,36.5043253 L0.71225,116.830735 C0.71225,117.116747 0.864769231,117.38053 1.11205769,117.525759 C1.23644231,117.59541 1.37415385,117.632458 1.51334615,117.632458 C1.65105769,117.632458 1.78876923,117.59541 1.91167308,117.525759 L68.7995,78.8489277 C69.0467885,78.7051807 69.2007885,78.4413976 69.2007885,78.1553855 L69.2007885,0.801722892 C69.2007885,0.520156627 69.0527115,0.260819277 68.8113462,0.115590361"/>
    <path id="placeholder-python-K" d="M68.8113462,0.115590361 C68.5714615,-0.0296385542 68.2708654,-0.0370481928 68.0235769,0.0948433735 L1.13575,35.7959639 C0.875134615,35.9352651 0.71225,36.2079398 0.71225,36.5043253 L0.71225,116.830735 C0.71225,117.116747 0.864769231,117.38053 1.11205769,117.525759 C1.23644231,117.59541 1.37415385,117.632458 1.51334615,117.632458 C1.65105769,117.632458 1.78876923,117.59541 1.91167308,117.525759 L68.7995,78.8489277 C69.0467885,78.7051807 69.2007885,78.4413976 69.2007885,78.1553855 L69.2007885,0.801722892 C69.2007885,0.520156627 69.0527115,0.260819277 68.8113462,0.115590361"/>
    <linearGradient id="placeholder-python-M" x1="50.001%" x2="50.001%" y1="0%" y2="100%">
      <stop offset="0%" stop-color="#0A97A5"/>
      <stop offset="100%" stop-color="#264891"/>
    </linearGradient>
    <path id="placeholder-python-L" d="M68.3197308,1.0373494 C68.0783654,0.892120482 67.7777692,0.884710843 67.529,1.01808434 L0.644134615,36.7192048 C0.382038462,36.858506 0.219153846,37.1296988 0.219153846,37.4260843 L0.219153846,117.752494 C0.219153846,118.039988 0.371673077,118.303771 0.620442308,118.447518 C0.744826923,118.518651 0.882538462,118.554217 1.01876923,118.554217 C1.15796154,118.554217 1.29715385,118.518651 1.42005769,118.447518 L68.3078846,79.7706867 C68.5551731,79.6284217 68.7062115,79.3631566 68.7062115,79.0771446 L68.7062115,1.72496386 C68.7062115,1.44339759 68.5596154,1.18257831 68.3197308,1.0373494 Z"/>
    <linearGradient id="placeholder-python-P" x1="50%" x2="50%" y1="0%" y2="97.676%">
      <stop offset="0%" stop-color="#DBF0FF"/>
      <stop offset="100%" stop-color="#A8C8DA"/>
    </linearGradient>
    <path id="placeholder-python-O" d="M8.61215385,35.2891446 L6.21923077,36.5028434 C3.41317308,37.925494 1.12242308,36.6199157 1.12982692,33.6027108 L1.18757692,9.69921687 C1.19498077,6.68053012 3.49017308,3.22171084 6.28734615,2.0109759 L8.67286538,0.981036145 C11.4715192,-0.229698795 13.7563462,1.18109639 13.7519038,4.11679518 L13.7208077,27.3637952 C13.7163654,30.299494 11.4182115,33.866494 8.61215385,35.2891446"/>
    <linearGradient id="placeholder-python-R" x1="50%" x2="50%" y1="0%" y2="100%">
      <stop offset="0%" stop-color="#D4E4F1"/>
      <stop offset="100%" stop-color="#B5CFDD"/>
    </linearGradient>
    <path id="placeholder-python-S" d="M5.39628502,39.4266479 C2.42464672,40.8284976 -0.00313160748,39.6252433 3.03207225e-06,36.7499912 L0.0344840671,8.73928233 C0.0391860264,5.86403023 2.46382972,2.56530271 5.42136213,1.40585621 L7.94631429,0.417260132 C10.905414,-0.740726111 13.3269231,0.595411862 13.3269231,3.38742913 L13.3269231,30.6037565 C13.3269231,33.3957738 10.8975774,36.8288452 7.92750645,38.2306949 L5.39628502,39.4266479 Z"/>
    <linearGradient id="placeholder-python-V" x1="50%" x2="50%" y1="0%" y2="100%">
      <stop offset="0%" stop-color="#ECF7FF"/>
      <stop offset="100%" stop-color="#CCE5F4"/>
    </linearGradient>
    <path id="placeholder-python-U" d="M8.02428846,29.7585904 L5.63284615,30.9722892 C2.82530769,32.3949398 0.539,31.0078554 0.550846154,27.8883976 L0.611557692,10.9395904 C0.623403846,7.82013253 2.92303846,4.24127711 5.72169231,2.98460241 L8.10869231,1.91316867 C10.9073462,0.657975904 13.1921731,2.11471084 13.1832885,5.15266265 L13.1403462,21.6494819 C13.1329423,24.6874337 10.8318269,28.3359398 8.02428846,29.7585904"/>
    <path id="placeholder-python-X" d="M63.8782075,34.1647353 L1.32958491,1.14961765 C1.0970566,1.02782353 0.819811321,1.03525 0.596226415,1.17041176 C0.372641509,1.30408824 0.235509434,1.54619118 0.235509434,1.80611765 L0.235509434,55.6851618 C0.235509434,55.954 0.381584906,56.2020441 0.61709434,56.33275 L63.1642264,91.2520147 C63.279,91.3158824 63.4042075,91.3470735 63.5294151,91.3470735 C63.6605849,91.3470735 63.7902642,91.3129118 63.9065283,91.2445882 C64.1345849,91.1109118 64.2746981,90.8673235 64.2746981,90.6044265 L64.2746981,34.8212353 C64.2746981,34.5464559 64.1226604,34.2939559 63.8782075,34.1647353"/>
    <path id="placeholder-python-Z" d="M63.8782075,34.1647353 L1.32958491,1.14961765 C1.0970566,1.02782353 0.819811321,1.03525 0.596226415,1.17041176 C0.372641509,1.30408824 0.235509434,1.54619118 0.235509434,1.80611765 L0.235509434,55.6851618 C0.235509434,55.954 0.381584906,56.2020441 0.61709434,56.33275 L63.1642264,91.2520147 C63.279,91.3158824 63.4042075,91.3470735 63.5294151,91.3470735 C63.6605849,91.3470735 63.7902642,91.3129118 63.9065283,91.2445882 C64.1345849,91.1109118 64.2746981,90.8673235 64.2746981,90.6044265 L64.2746981,34.8212353 C64.2746981,34.5464559 64.1226604,34.2939559 63.8782075,34.1647353"/>
    <path id="placeholder-python-ab" d="M63.8782075,34.1647353 L1.32958491,1.14961765 C1.0970566,1.02782353 0.819811321,1.03525 0.596226415,1.17041176 C0.372641509,1.30408824 0.235509434,1.54470588 0.235509434,1.80611765 L0.235509434,55.6851618 C0.235509434,55.954 0.381584906,56.2020441 0.61709434,56.33275 L63.1642264,91.2505294 C63.2775094,91.3143971 63.4042075,91.3455882 63.5294151,91.3455882 C63.6590943,91.3455882 63.7902642,91.3114265 63.9065283,91.2445882 C64.1345849,91.1109118 64.2746981,90.8673235 64.2746981,90.6029412 L64.2746981,34.8212353 C64.2746981,34.5464559 64.1211698,34.2939559 63.8782075,34.1647353 Z"/>
    <path id="placeholder-python-ad" d="M35.9136981,16.4258676 L3.95149057,0.387661765 L1.185,3.73848529 C0.949490566,4.27764706 1.72458491,5.19704412 2.90511321,5.78225 L36.4219811,22.5126029 C37.604,23.1052353 38.4103962,22.9819559 38.2151321,22.2378235 L35.9136981,16.4258676 Z"/>
    <linearGradient id="placeholder-python-af" x1="50%" x2="50%" y1="4.721%" y2="97.676%">
      <stop offset="0%" stop-color="#C7DBE8"/>
      <stop offset="100%" stop-color="#96B5C7"/>
    </linearGradient>
    <linearGradient id="placeholder-python-ah" x1="24.385%" y1="0%" y2="100%">
      <stop offset="0%" stop-color="#ECF7FF"/>
      <stop offset="100%" stop-color="#CCE5F4"/>
    </linearGradient>
    <path id="placeholder-python-ag" d="M36.4249623,28.6067647 L2.92449057,11.8214559 C1.74396226,11.2332794 0.970358491,10.3123971 1.20437736,9.77323529 L7.80162264,1.80463235 C8.03564151,1.26992647 8.84203774,1.14070588 9.59477358,1.51945588 L30.9724717,12.2997206 C31.7252075,12.6814412 32.5003019,13.6038088 32.6940755,14.3509118 L38.2166226,28.3349559 C38.4118868,29.0790882 37.6054906,29.2008824 36.4249623,28.6067647"/>
    <path id="placeholder-python-aj" d="M8.76267306,15.8315471 L8.79583019,2.222 C8.79881132,0.911970588 9.7080566,0.303 10.8140566,0.873352941 C11.9230377,1.44370588 12.8263208,2.98098529 12.8233396,4.29101471 L12.7973343,17.9070218 L17.3665849,14.8455147 C18.125283,14.3390294 19.355,14.9673088 20.1122075,16.2491176 C20.8694151,17.5279559 20.8679245,18.9746324 20.1077358,19.4811176 L12.1466226,24.8148088 C11.781434,25.0613676 11.286566,25.0539412 10.7708302,24.7940147 C10.2550943,24.5340882 9.76171698,24.0439412 9.39801887,23.4305147 L1.47715094,10.0123676 C1.1015283,9.37072059 0.913716981,8.68451471 0.915207547,8.09633824 C0.916698113,7.50667647 1.10749057,7.01355882 1.48907547,6.75660294 C2.24926415,6.24269118 3.47898113,6.868 4.23320755,8.15129412 L8.76267306,15.8315471 Z"/>
  </defs>
  <g fill="none" fill-rule="evenodd" transform="translate(43)">
    <g transform="translate(0 47)">
      <polygon fill="#000" points="48.95 226.354 133.486 272.191 218.05 226.408 133.733 179.755" filter="url(#placeholder-python-a)" opacity=".189"/>
      <polygon fill="url(#placeholder-python-b)" points="16.317 243.688 132.993 306.951 249.707 243.762 133.334 179.372" opacity=".032"/>
      <g transform="translate(16.317)">
        <g transform="translate(115.7 11.885)">
          <mask id="placeholder-python-d" fill="#fff">
            <use xlink:href="#placeholder-python-c"/>
          </mask>
          <use fill="#929292" fill-rule="nonzero" xlink:href="#placeholder-python-c"/>
          <g fill="url(#placeholder-python-e)" mask="url(#placeholder-python-d)">
            <rect width="125" height="113" transform="translate(-7.417 1.486)"/>
          </g>
        </g>
        <g transform="translate(19.283 11.885)">
          <mask id="placeholder-python-g" fill="#fff">
            <use xlink:href="#placeholder-python-f"/>
          </mask>
          <use fill="#797979" fill-rule="nonzero" xlink:href="#placeholder-python-f"/>
          <g fill="url(#placeholder-python-e)" mask="url(#placeholder-python-g)">
            <rect width="119" height="92" transform="rotate(-90 56.367 49.02)"/>
          </g>
        </g>
        <g transform="translate(0 65.365)">
          <mask id="placeholder-python-i" fill="#fff">
            <use xlink:href="#placeholder-python-h"/>
          </mask>
          <use fill="#A3A3A3" fill-rule="nonzero" xlink:href="#placeholder-python-h"/>
          <g fill="url(#placeholder-python-j)" mask="url(#placeholder-python-i)">
            <rect width="117" height="202"/>
          </g>
        </g>
        <g transform="translate(115.7 65.365)">
          <mask id="placeholder-python-l" fill="#fff">
            <use xlink:href="#placeholder-python-k"/>
          </mask>
          <use fill="#727272" fill-rule="nonzero" xlink:href="#placeholder-python-k"/>
          <g fill="url(#placeholder-python-e)" mask="url(#placeholder-python-l)">
            <rect width="119" height="202" transform="translate(-1.483)"/>
          </g>
        </g>
        <mask id="placeholder-python-n" fill="#fff">
          <use xlink:href="#placeholder-python-m"/>
        </mask>
        <use fill="#BCBCBC" xlink:href="#placeholder-python-m"/>
        <g fill="#8DF4C2" mask="url(#placeholder-python-n)">
          <rect width="233" height="233" transform="translate(0 -102.505)"/>
        </g>
      </g>
    </g>
    <g transform="translate(16 113)">
      <mask id="placeholder-python-p" fill="#fff">
        <use xlink:href="#placeholder-python-o"/>
      </mask>
      <path stroke="#979797" stroke-width=".01" d="M116.473684,201.428398 L116.476282,63.4695177 L0.606291139,0 L0.603797964,134.287056 L116.473684,201.428398 Z"/>
      <g mask="url(#placeholder-python-p)">
        <g transform="translate(-23.696 19.309)">
          <mask id="placeholder-python-s" fill="#fff">
            <use xlink:href="#placeholder-python-q"/>
          </mask>
          <use fill="url(#placeholder-python-r)" fill-rule="nonzero" xlink:href="#placeholder-python-q"/>
          <g mask="url(#placeholder-python-s)">
            <rect width="87" height="141" fill="url(#placeholder-python-e)" transform="rotate(-45 74.753 31.056)"/>
          </g>
        </g>
      </g>
      <g mask="url(#placeholder-python-p)">
        <g transform="translate(14.81 44.559)">
          <mask id="placeholder-python-u" fill="#fff">
            <use xlink:href="#placeholder-python-t"/>
          </mask>
          <use fill="#101010" fill-rule="nonzero" xlink:href="#placeholder-python-t"/>
          <g mask="url(#placeholder-python-u)">
            <rect width="83" height="107" fill="#F5AE66"/>
          </g>
        </g>
      </g>
      <g mask="url(#placeholder-python-p)">
        <g transform="translate(28.14 57.926)">
          <mask id="placeholder-python-w" fill="#fff">
            <use xlink:href="#placeholder-python-v"/>
          </mask>
          <use fill="#BFBFBF" fill-rule="nonzero" xlink:href="#placeholder-python-v"/>
          <g mask="url(#placeholder-python-w)">
            <rect width="83" height="107" fill="#8DF4C2" transform="translate(-13.33 -13.368)"/>
          </g>
        </g>
      </g>
    </g>
    <g transform="translate(80)">
      <g opacity=".85" transform="translate(5.88 1.97)">
        <mask id="placeholder-python-y" fill="#fff">
          <use xlink:href="#placeholder-python-x"/>
        </mask>
        <use fill="#000" fill-rule="nonzero" xlink:href="#placeholder-python-x"/>
        <g fill="url(#placeholder-python-e)" mask="url(#placeholder-python-y)">
          <rect width="49" height="65" transform="translate(-5.88 -1.97)"/>
        </g>
        <use fill="#000" fill-opacity=".3" fill-rule="nonzero" style="mix-blend-mode:multiply" xlink:href="#placeholder-python-z"/>
      </g>
      <g opacity=".9" transform="translate(1.96 5.91)">
        <mask id="placeholder-python-B" fill="#fff">
          <use xlink:href="#placeholder-python-A"/>
        </mask>
        <use fill="#7B7B7B" fill-rule="nonzero" xlink:href="#placeholder-python-A"/>
        <g fill="url(#placeholder-python-j)" mask="url(#placeholder-python-B)">
          <rect width="49" height="65" transform="translate(-1.96 -5.91)"/>
        </g>
      </g>
      <g transform="translate(1.96 15.758)">
        <path fill="#000" fill-opacity=".3" fill-rule="nonzero" d="M27.0797405,25.9056823 L21.8428989,20.8374625 C21.0649467,21.3395147 20.0406362,21.430982 18.91596,20.9969697 C16.46792,20.0515152 14.46284,16.9590909 14.43932,14.0872727 C14.4158,11.2174242 16.38952,9.66924242 18.85128,10.6304545 C20.0819575,11.1113644 21.1988113,12.1262443 22.0091513,13.3778455 L27.2384459,11.633028 C27.2166923,11.4730394 27.2051923,11.313056 27.2048,11.1543939 C27.20088,9.57075758 28.31024,8.72378788 29.6842,9.26545455 C31.05816,9.80515152 32.17144,11.524697 32.17144,13.1043939 C32.17144,14.6840909 31.06208,15.5290909 29.69204,14.9933333 C29.1746099,14.790991 28.6938036,14.4200758 28.2955517,13.9513629 L23.0629556,15.7029711 C23.2321027,16.3109276 23.3254101,16.9310126 23.32792,17.5401515 C23.3308631,18.2544178 23.2094549,18.8868946 22.9873504,19.4189655 L27.9609152,24.2336066 C28.4578915,23.893606 29.1220698,23.8251256 29.85276,24.1071212 C31.39724,24.7039394 32.64968,26.6381818 32.64968,28.4266667 C32.64968,30.2151515 31.40116,31.1862121 29.8606,30.5972727 C28.32004,30.0063636 27.0676,28.0721212 27.06172,26.2777273 C27.0614397,26.1494216 27.0675628,26.0253155 27.0797405,25.9056823 Z"/>
        <mask id="placeholder-python-E" fill="#fff">
          <use xlink:href="#placeholder-python-C"/>
        </mask>
        <use fill="url(#placeholder-python-D)" fill-rule="nonzero" xlink:href="#placeholder-python-C"/>
        <g fill="url(#placeholder-python-F)" mask="url(#placeholder-python-E)">
          <rect width="29" height="32" transform="rotate(55 12.944 26.242)"/>
        </g>
        <g transform="translate(11.76 7.879)">
          <mask id="placeholder-python-H" fill="#fff">
            <use xlink:href="#placeholder-python-G"/>
          </mask>
          <use fill="#FFF" fill-rule="nonzero" xlink:href="#placeholder-python-G"/>
          <g fill="#E0F1FF" mask="url(#placeholder-python-H)">
            <rect width="26" height="25" transform="rotate(55 14.632 10.991)"/>
          </g>
        </g>
      </g>
    </g>
    <g transform="translate(154 2)">
      <g opacity=".85">
        <mask id="placeholder-python-J" fill="#fff">
          <use xlink:href="#placeholder-python-I"/>
        </mask>
        <use fill="#000" fill-opacity=".3" fill-rule="nonzero" xlink:href="#placeholder-python-I"/>
        <g fill="url(#placeholder-python-e)" mask="url(#placeholder-python-J)">
          <rect width="86" height="132" transform="translate(-3.468 -5.007)"/>
        </g>
        <use fill="#000" fill-opacity=".3" fill-rule="nonzero" style="mix-blend-mode:multiply" xlink:href="#placeholder-python-K"/>
      </g>
      <g opacity=".9" transform="translate(6.897 3.884)">
        <mask id="placeholder-python-N" fill="#fff">
          <use xlink:href="#placeholder-python-L"/>
        </mask>
        <use fill="url(#placeholder-python-M)" fill-rule="nonzero" xlink:href="#placeholder-python-L"/>
        <g fill="url(#placeholder-python-j)" mask="url(#placeholder-python-N)">
          <rect width="89" height="136" transform="translate(-10.365 -8.892)"/>
        </g>
      </g>
      <g transform="translate(17.77 31.12)">
        <path fill="#000" fill-opacity=".2" fill-rule="nonzero" d="M8.21530769,54.9217229 L5.67578846,56.1946988 C2.87121154,57.6010482 0.584903846,56.2006265 0.595269231,53.0811687 L0.657461538,36.1323614 C0.667826923,33.0129036 2.96746154,29.4459036 5.76759615,28.2040482 L8.30119231,27.080747 C11.0998462,25.8388916 13.3831923,27.3074819 13.3757885,30.3454337 L13.3328462,46.842253 C13.3239615,49.8802048 11.0228462,53.5153735 8.21530769,54.9217229 Z M23.7900385,47.1149277 L21.2505192,48.3879036 C18.4444615,49.794253 16.1551923,48.4753373 16.1625962,45.4581325 L16.2203462,21.5546386 C16.22775,18.5359518 18.5214615,15.088988 21.3201154,13.8930723 L23.8522308,12.8097831 C26.6494038,11.6138675 28.9357115,13.0365181 28.9312692,15.9722169 L28.8986923,39.2192169 C28.89425,42.1549157 26.5975769,45.7070964 23.7900385,47.1149277 Z M39.36625,39.3066506 L36.8267308,40.5796265 C34.0206731,41.9859759 31.7269615,40.7515301 31.7314038,37.8336145 L31.7625,9.40727711 C31.7654615,6.48936145 34.0562115,3.15206024 36.8533846,1.98874699 L39.3840192,0.936578313 C42.1797115,-0.225253012 44.4675,1.14256627 44.4675,3.97601205 L44.4675,31.5961807 C44.4675,34.4296265 42.1723077,37.9003012 39.36625,39.3066506 Z"/>
        <g transform="translate(17.77 13.337)">
          <mask id="placeholder-python-Q" fill="#fff">
            <use xlink:href="#placeholder-python-O"/>
          </mask>
          <use fill="url(#placeholder-python-P)" fill-rule="nonzero" xlink:href="#placeholder-python-O"/>
          <g fill="url(#placeholder-python-R)" mask="url(#placeholder-python-Q)">
            <rect width="22" height="46" transform="translate(-4.442 -4.446)"/>
          </g>
        </g>
        <g transform="translate(34.058 1.482)">
          <mask id="placeholder-python-T" fill="#fff">
            <use xlink:href="#placeholder-python-S"/>
          </mask>
          <use fill="url(#placeholder-python-F)" fill-rule="nonzero" xlink:href="#placeholder-python-S"/>
          <g fill="url(#placeholder-python-F)" mask="url(#placeholder-python-T)">
            <rect width="25" height="53" transform="translate(-5.923 -7.41)"/>
          </g>
        </g>
        <g transform="translate(2.962 26.675)">
          <mask id="placeholder-python-W" fill="#fff">
            <use xlink:href="#placeholder-python-U"/>
          </mask>
          <use fill="url(#placeholder-python-V)" fill-rule="nonzero" xlink:href="#placeholder-python-U"/>
          <g fill="#E0F1FF" mask="url(#placeholder-python-W)">
            <rect width="27" height="44" transform="translate(-7.404 -7.41)"/>
          </g>
        </g>
      </g>
    </g>
    <g transform="translate(48 40)">
      <g opacity=".85" transform="translate(13.415)">
        <mask id="placeholder-python-Y" fill="#fff">
          <use xlink:href="#placeholder-python-X"/>
        </mask>
        <use fill="#101010" fill-rule="nonzero" xlink:href="#placeholder-python-X"/>
        <g fill="url(#placeholder-python-e)" mask="url(#placeholder-python-Y)">
          <rect width="70" height="98" transform="translate(-2.981 -1.485)"/>
        </g>
        <path fill="#000" fill-opacity=".3" fill-rule="nonzero" d="M63.8782075,34.1647353 L1.32958491,1.14961765 C1.0970566,1.02782353 0.819811321,1.03525 0.596226415,1.17041176 C0.372641509,1.30408824 0.235509434,1.54619118 0.235509434,1.80611765 L0.235509434,55.6851618 C0.235509434,55.954 0.381584906,56.2020441 0.61709434,56.33275 L63.1642264,91.2520147 C63.279,91.3158824 63.4042075,91.3470735 63.5294151,91.3470735 C63.6605849,91.3470735 63.7902642,91.3129118 63.9065283,91.2445882 C64.1345849,91.1109118 64.2746981,90.8673235 64.2746981,90.6044265 L64.2746981,34.8212353 C64.2746981,34.5464559 64.1226604,34.2939559 63.8782075,34.1647353" mask="url(#placeholder-python-Y)" style="mix-blend-mode:multiply"/>
      </g>
      <g opacity=".85" transform="translate(5.962 4.456)">
        <mask id="placeholder-python-aa" fill="#fff">
          <use xlink:href="#placeholder-python-Z"/>
        </mask>
        <use fill="#6C6C6C" fill-rule="nonzero" xlink:href="#placeholder-python-Z"/>
        <g fill="url(#placeholder-python-j)" mask="url(#placeholder-python-aa)" opacity=".802">
          <rect width="72" height="98" transform="translate(-2.981 -1.485)"/>
        </g>
      </g>
      <g opacity=".9" transform="translate(0 8.912)">
        <mask id="placeholder-python-ac" fill="#fff">
          <use xlink:href="#placeholder-python-ab"/>
        </mask>
        <use fill="#929292" fill-rule="nonzero" xlink:href="#placeholder-python-ab"/>
        <g fill="url(#placeholder-python-j)" mask="url(#placeholder-python-ac)">
          <rect width="73" height="98" transform="translate(-5.962 -5.941)"/>
        </g>
      </g>
      <g transform="rotate(2 -950.988 425.123)">
        <path fill="#000" fill-opacity=".2" fill-rule="nonzero" d="M39.4060943,41.9744118 L5.90562264,25.1891029 C4.72509434,24.6009265 3.95149057,23.6800441 4.18550943,23.1408824 L10.7827547,15.1722794 C11.0167736,14.6375735 11.8231698,14.5083529 12.5759057,14.8871029 L33.9536038,25.6673676 C34.7063396,26.0490882 35.481434,26.9714559 35.6752075,27.7185588 L41.1977547,41.7026029 C41.3930189,42.4467353 40.5866226,42.5685294 39.4060943,41.9744118"/>
        <path fill="#000" fill-opacity=".2" d="M20.6872014,18.8021353 L20.7203585,5.19258824 C20.7233396,3.88255882 21.6325849,3.27358824 22.7385849,3.84394118 C23.847566,4.41429412 24.7508491,5.95157353 24.7478679,7.26160294 L24.7218626,20.87761 L29.2911132,17.8161029 C30.0498113,17.3096176 31.2795283,17.9378971 32.0367358,19.2197059 C32.7939434,20.4985441 32.7924528,21.9452206 32.0322642,22.4517059 L24.0711509,27.7853971 C23.7059623,28.0319559 23.2110943,28.0245294 22.6953585,27.7646029 C22.1796226,27.5046765 21.6862453,27.0145294 21.3225472,26.4011029 L13.4016792,12.9829559 C13.0260566,12.3413088 12.8382453,11.6551029 12.8397358,11.0669265 C12.8412264,10.4772647 13.0320189,9.98414706 13.4136038,9.72719118 C14.1737925,9.21327941 15.4035094,9.83858824 16.1577358,11.1218824 L20.6872014,18.8021353 Z" transform="rotate(-2 22.722 15.797)"/>
        <g transform="translate(0 22.28)">
          <mask id="placeholder-python-ae" fill="#fff">
            <use xlink:href="#placeholder-python-ad"/>
          </mask>
          <use fill="#000" fill-rule="nonzero" xlink:href="#placeholder-python-ad"/>
          <g fill="url(#placeholder-python-af)" mask="url(#placeholder-python-ae)" opacity=".847">
            <rect width="43" height="28" transform="translate(-1.49 -2.97)"/>
          </g>
        </g>
        <g transform="translate(0 11.882)">
          <mask id="placeholder-python-ai" fill="#fff">
            <use xlink:href="#placeholder-python-ag"/>
          </mask>
          <use fill="url(#placeholder-python-ah)" fill-rule="nonzero" xlink:href="#placeholder-python-ag"/>
          <g fill="#E0F1FF" mask="url(#placeholder-python-ai)">
            <rect width="43" height="33" transform="translate(-1.49 -1.485)"/>
          </g>
        </g>
        <g transform="rotate(-3 43.266 -157.4)">
          <mask id="placeholder-python-ak" fill="#fff">
            <use xlink:href="#placeholder-python-aj"/>
          </mask>
          <use fill="url(#placeholder-python-F)" fill-rule="nonzero" xlink:href="#placeholder-python-aj"/>
          <g fill="url(#placeholder-python-F)" mask="url(#placeholder-python-ak)">
            <rect width="42" height="42" transform="translate(-7.453 -7.426)"/>
          </g>
        </g>
      </g>
    </g>
  </g>
</svg>
